{
  "accessors": [
    {
      "bufferView": 2,
      "componentType": 5126,
      "count": 816,
      "max": [
        0.9999998807907104,
        1.0,
        0.9999995231628418
      ],
      "min": [
        -0.9999998807907104,
        -2.424884796142578,
        -1.0
      ],
      "type": "VEC3"
    },
    {
      "bufferView": 2,
      "byteOffset": 9792,
      "componentType": 5126,
      "count": 816,
      "max": [
        1.0,
        1.0,
        1.0
      ],
      "min": [
        -1.0,
        -1.0,
        -1.0
      ],
      "type": "VEC3"
    },
    {
      "bufferView": 1,
      "componentType": 5126,
      "count": 816,
      "max": [
        0.8678983449935913,
        1.0
      ],
      "min": [
        0.125,
        0.007101595401763916
      ],
      "type": "VEC2"
    },
    {
      "bufferView": 0,
      "componentType": 5125,
      "count": 1272,
      "type": "SCALAR"
    },
    {
      "bufferView": 2,
      "byteOffset": 19584,
      "componentType": 5126,
      "count": 306,
      "max": [
        -0.00604856014251709,
        1.902087926864624,
        0.999998927116394
      ],
      "min": [
        -2.0060486793518066,
        -1.9811993837356567,
        -1.000001072883606
      ],
      "type": "VEC3"
    },
    {
      "bufferView": 2,
      "byteOffset": 23256,
      "componentType": 5126,
      "count": 306,
      "max": [
        0.9807840585708618,
        0.9982343316078186,
        0.9807840585708618
      ],
      "min": [
        -0.9807840585708618,
        -0.9877833724021912,
        -0.9807840585708618
      ],
      "type": "VEC3"
    },
    {
      "bufferView": 1,
      "byteOffset": 6528,
      "componentType": 5126,
      "count": 306,
      "max": [
        0.6321015357971191,
        1.0
      ],
      "min": [
        0.125,
        0.007101595401763916
      ],
      "type": "VEC2"
    },
    {
      "bufferView": 0,
      "byteOffset": 5088,
      "componentType": 5125,
      "count": 1218,
      "type": "SCALAR"
    },
    {
      "bufferView": 2,
      "byteOffset": 26928,
      "componentType": 5126,
      "count": 4,
      "max": [
        -0.06286126375198364,
        1.4436854124069214,
        0.9431862235069275
      ],
      "min": [
        -1.9492359161376953,
        1.4436854124069214,
        -0.9431883692741394
      ],
      "type": "VEC3"
    },
    {
      "bufferView": 2,
      "byteOffset": 26976,
      "componentType": 5126,
      "count": 4,
      "max": [
        0.0,
        1.0,
        0.0
      ],
      "min": [
        0.0,
        1.0,
        0.0
      ],
      "type": "VEC3"
    },
    {
      "bufferView": 1,
      "byteOffset": 8976,
      "componentType": 5126,
      "count": 4,
      "max": [
        0.8678983449935913,
        0.4928984045982361
      ],
      "min": [
        0.6321015357971191,
        0.2571015954017639
      ],
      "type": "VEC2"
    },
    {
      "bufferView": 0,
      "byteOffset": 9960,
      "componentType": 5125,
      "count": 6,
      "type": "SCALAR"
    },
    {
      "bufferView": 2,
      "byteOffset": 27024,
      "componentType": 5126,
      "count": 226,
      "max": [
        -0.11740987747907639,
        1.0,
        0.4539854824542999
      ],
      "min": [
        -0.9447796940803528,
        0.3673117160797119,
        -0.45032352209091187
      ],
      "type": "VEC3"
    },
    {
      "bufferView": 2,
      "byteOffset": 29736,
      "componentType": 5126,
      "count": 226,
      "max": [
        0.9999865293502808,
        1.0,
        1.0
      ],
      "min": [
        -0.9999865293502808,
        0.0,
        -1.0
      ],
      "type": "VEC3"
    },
    {
      "bufferView": 1,
      "byteOffset": 9008,
      "componentType": 5126,
      "count": 226,
      "max": [
        0.6783174872398376,
        0.5533185601234436
      ],
      "min": [
        0.3216773271560669,
        0.19667726755142212
      ],
      "type": "VEC2"
    },
    {
      "bufferView": 0,
      "byteOffset": 9984,
      "componentType": 5125,
      "count": 336,
      "type": "SCALAR"
    }
  ],
  "asset": {
    "extras": {
      "author": "MetaCreators (https://sketchfab.com/meta-creators)",
      "license": "SKETCHFAB Standard (https://sketchfab.com/licenses)",
      "source": "https://sketchfab.com/3d-models/low-poly-laptop-a9c2e21a123542fdaf8edfdac4c22869",
      "title": "Low Poly Laptop"
    },
    "generator": "Sketchfab-16.16.0",
    "version": "2.0"
  },
  "bufferViews": [
    {
      "buffer": 0,
      "byteLength": 11328,
      "name": "floatBufferViews",
      "target": 34963
    },
    {
      "buffer": 0,
      "byteLength": 10816,
      "byteOffset": 11328,
      "byteStride": 8,
      "name": "floatBufferViews",
      "target": 34962
    },
    {
      "buffer": 0,
      "byteLength": 32448,
      "byteOffset": 22144,
      "byteStride": 12,
      "name": "floatBufferViews",
      "target": 34962
    }
  ],
  "buffers": [
    {
      "byteLength": 54592,
      "uri": "scene.bin"
    }
  ],
  "extensionsUsed": [
    "KHR_materials_clearcoat"
  ],
  "materials": [
    {
      "doubleSided": true,
      "name": "GreyBack",
      "pbrMetallicRoughness": {
        "baseColorFactor": [
          0.217048,
          0.217048,
          0.217048,
          1.0
        ],
        "metallicFactor": 0.531818,
        "roughnessFactor": 0.5
      }
    },
    {
      "doubleSided": true,
      "extensions": {
        "KHR_materials_clearcoat": {
          "clearcoatFactor": 1.0,
          "clearcoatRoughnessFactor": 0.03
        }
      },
      "name": "LCD_Screen",
      "pbrMetallicRoughness": {
        "baseColorFactor": [
          0.0,
          0.0,
          0.0,
          1.0
        ],
        "metallicFactor": 0.0,
        "roughnessFactor": 0.191176
      }
    },
    {
      "doubleSided": true,
      "name": "GreyDarker",
      "pbrMetallicRoughness": {
        "baseColorFactor": [
          0.10957,
          0.129391,
          0.149783,
          1.0
        ],
        "metallicFactor": 0.0,
        "roughnessFactor": 0.5
      }
    }
  ],
  "meshes": [
    {
      "name": "Object_0",
      "primitives": [
        {
          "attributes": {
            "NORMAL": 1,
            "POSITION": 0,
            "TEXCOORD_0": 2
          },
          "indices": 3,
          "material": 0,
          "mode": 4
        }
      ]
    },
    {
      "name": "Object_1",
      "primitives": [
        {
          "attributes": {
            "NORMAL": 5,
            "POSITION": 4,
            "TEXCOORD_0": 6
          },
          "indices": 7,
          "material": 0,
          "mode": 4
        }
      ]
    },
    {
      "name": "Object_2",
      "primitives": [
        {
          "attributes": {
            "NORMAL": 9,
            "POSITION": 8,
            "TEXCOORD_0": 10
          },
          "indices": 11,
          "material": 1,
          "mode": 4
        }
      ]
    },
    {
      "name": "Object_3",
      "primitives": [
        {
          "attributes": {
            "NORMAL": 13,
            "POSITION": 12,
            "TEXCOORD_0": 14
          },
          "indices": 15,
          "material": 2,
          "mode": 4
        }
      ]
    }
  ],
  "nodes": [
    {
      "children": [
        1
      ],
      "matrix": [
        1.0,
        0.0,
        0.0,
        0.0,
        0.0,
        2.220446049250313e-16,
        -1.0,
        0.0,
        0.0,
        1.0,
        2.220446049250313e-16,
        0.0,
        0.0,
        0.0,
        0.0,
        1.0
      ],
      "name": "Sketchfab_model"
    },
    {
      "children": [
        2
      ],
      "name": "root"
    },
    {
      "children": [
        3,
        5,
        7,
        9
      ],
      "matrix": [
        1.0,
        0.0,
        0.0,
        0.0,
        0.0,
        2.220446049250313e-16,
        1.0,
        0.0,
        0.0,
        -1.0,
        2.220446049250313e-16,
        0.0,
        0.0,
        0.0,
        0.0,
        1.0
      ],
      "name": "GLTF_SceneRootNode"
    },
    {
      "children": [
        4
      ],
      "matrix": [
        -0.6768686771391166,
        0.0,
        4.7339068255958974e-07,
        0.0,
        0.0,
        0.020281944423913956,
        0.0,
        0.0,
        -6.915456628907e-07,
        0.0,
        -0.988793432712313,
        0.0,
        0.34711551666259766,
        0.059386253356933594,
        0.0030432939529418945,
        1.0
      ],
      "name": "Body_0"
    },
    {
      "mesh": 0,
      "name": "Object_4"
    },
    {
      "children": [
        6
      ],
      "matrix": [
        0.16746909630942572,
        -0.6558240824981616,
        0.0,
        0.0,
        0.01203761741827482,
        0.003073886678692891,
        0.0,
        0.0,
        0.0,
        0.0,
        0.9887934327125549,
        0.0,
        -0.34711551666259766,
        0.06425976753234863,
        0.0030432939529418945,
        1.0
      ],
      "name": "Screen_1"
    },
    {
      "mesh": 1,
      "name": "Object_6"
    },
    {
      "children": [
        8
      ],
      "matrix": [
        0.16746909630942572,
        -0.6558240824981616,
        0.0,
        0.0,
        0.01203761741827482,
        0.003073886678692891,
        0.0,
        0.0,
        0.0,
        0.0,
        0.9887934327125549,
        0.0,
        -0.34711551666259766,
        0.06425976753234863,
        0.0030432939529418945,
        1.0
      ],
      "name": "LCD_2"
    },
    {
      "mesh": 2,
      "name": "Object_8"
    },
    {
      "children": [
        10
      ],
      "matrix": [
        -0.6768686771391166,
        0.0,
        4.7339068255958974e-07,
        0.0,
        0.0,
        0.020281944423913956,
        0.0,
        0.0,
        -6.915456628907e-07,
        0.0,
        -0.988793432712313,
        0.0,
        0.34711551666259766,
        0.059386253356933594,
        0.0030432939529418945,
        1.0
      ],
      "name": "Body.001_3"
    },
    {
      "mesh": 3,
      "name": "Object_10"
    }
  ],
  "scene": 0,
  "scenes": [
    {
      "name": "Sketchfab_Scene",
      "nodes": [
        0
      ]
    }
  ]
}
